<svg>
  <!-- Proper Design -->
  <clipPath id="w">
    <path d="M24.4,108.17c7.16-5.58,11.73-12.83,16.35-20.02c4.68-7.28,9.01-14.78,13.74-22.02c1.78-2.73,3.92-5.5,6.54-7.33
    	c1.78-1.24,4.87-1.58,7.05-1.03c3.01,0.76,4.12,3.77,3.72,6.76c-0.58,4.28-1.58,8.5-2.41,12.75c-1.08,5.49-2.32,10.96-3.18,16.48
    	c-0.4,2.58-0.07,5.28-0.07,7.93c0.55,0.24,1.1,0.47,1.65,0.71c2.46-2.01,5.08-3.85,7.36-6.05C86.26,85.59,92.17,71.81,97.27,57.6
    	c1.63-4.55,3.25-9.12,4.76-13.71c1-3.04,2.86-4.99,6.16-4.31c3.02,0.62,3.71,3.17,3.56,5.93c-0.11,2.03,0.07,4.21-0.59,6.06
    	c-6.58,18.48-13.14,37.02-27.52,51.29c-2.87,2.85-5.95,5.63-9.36,7.77c-8.58,5.39-17.2,1.44-18.67-8.55
    	c-0.51-3.46-0.01-7.07,0.12-10.61c0.07-1.92,0.35-3.83-0.6-6.24c-2.86,4.37-5.56,8.86-8.61,13.1c-4.46,6.19-9.07,12.27-13.83,18.22
    	c-1.56,1.95-3.66,3.52-5.7,5.02c-2.87,2.11-6.04,2.91-9.19,0.62c-2.86-2.08-4.54-4.86-3.73-8.56c0.82-3.72,1.17-7.71,2.77-11.08
    	C26.87,81.4,37.16,60.38,47.45,39.36c0.88-1.79,2.18-3.49,3.65-4.82c0.71-0.65,2.55-0.85,3.37-0.37c0.82,0.47,1.59,2.21,1.34,3.11
    	c-0.59,2.18-1.77,4.2-2.73,6.28c-8.62,18.72-17.29,37.43-25.84,56.18C26.03,102.42,25.34,105.35,24.4,108.17z"/>
  </clipPath>

  <clipPath id="o">
    <path d="M157.15,36.98c0.19,3.59-4.9,17.13-8.8,24.68c-4.38,8.47-10.44,16.1-15.97,23.95c-1.27,1.81-3.22,3.25-5.11,4.48
    	c-3.13,2.05-6.5,2.79-9.99,0.59c-3.77-2.38-4.57-6.1-3.95-9.98c0.48-2.95,1.64-5.91,3.05-8.57c6.09-11.45,12.75-22.57,21.57-32.19
    	c2.56-2.79,5.45-5.38,8.56-7.51c1.64-1.12,4.52-2.01,6.05-1.29C154.43,32.01,156.72,34.15,157.15,36.98z M123.3,79.34
    	c9.18-9.32,16.06-20.04,18.86-33.08C133.68,55.97,127.55,67.06,123.3,79.34z"/>
  </clipPath>

  <clipPath id="r">
    <path d="M163.38,41.6c3.91-1.97,4.46,1.33,5.63,4.23c2.52-1.99,4.89-3.81,7.21-5.7c5.13-4.18,11.07-6.2,17.59-6.54
    	c2.01-0.11,4.11,0.03,6.04,0.55c2.11,0.57,5.11,1.2,4.32,4.19c-0.37,1.41-2.72,2.47-4.35,3.32c-1.07,0.56-2.47,0.52-3.74,0.68
    	c-7.14,0.91-13.07,4.24-17.9,9.39c-8.04,8.59-15.21,17.81-19.41,29c-0.27,0.71-0.54,1.43-0.91,2.1c-1.39,2.46-3.29,4.01-6.23,2.72
    	c-2.75-1.21-3.82-3.72-2.79-6.32c1.87-4.71,4.32-9.19,6.46-13.8c2.24-4.84,4.62-9.63,6.48-14.61
    	C162.77,48.07,161.84,42.82,163.38,41.6z"/>
  </clipPath>

  <clipPath id="ri">
    <path d="M221.97,45.38c-9.27,1.72-16.36,6.27-21.98,12.96c-2.77,3.3-5.08,7-7.47,10.59c-1.55,2.33-2.83,4.84-4.33,7.21
    	c-2.94,4.63-5.31,6.02-7.62,4.32c-3.32-2.45-1.73-5.44-0.53-8.25c4.06-9.48,9.42-18.43,16.99-25.17
    	c7.42-6.6,17.09-10.09,27.16-11.07c5.3-0.52,7.25,2.73,5.27,7.97c-1.25,3.32-2.91,6.52-4.72,9.58c-4.15,7.01-8.47,13.93-12.78,20.84
    	c-3.25,5.21-5.45,6.49-8.03,4.91c-2.83-1.73-2.63-4.47,1.06-9.89c3.45-5.05,7.13-9.94,10.67-14.93
    	C217.79,51.47,219.86,48.41,221.97,45.38z"/>
  </clipPath>

  <clipPath id="i-dot">
    <path d="M237.03,28.94c-2.8-1.37,1.11-7.64,2.43-12.08c0.22-0.73,2.02-1.35,3.08-1.33c0.68,0.01,1.7,1.16,1.94,1.98
    	C245.4,20.67,241.02,30.88,237.03,28.94z"/>
  </clipPath>

  <clipPath id="es">
    <path d="M307.35,51.81c6.54,0,12.15,0.41,17.67-0.08c18.26-1.61,36.51-3.48,54.74-5.42c2.8-0.3,5.24-0.32,6.56,2.39
    	c1.32,2.73,0.07,5.3-2.24,6.62c-3.03,1.73-6.4,3.55-9.77,3.9c-19.74,2.05-39.51,3.78-59.29,5.36c-3.99,0.32-8.07-0.51-12.56-0.84
    	c-0.99,1.46-1.94,3.27-3.26,4.73c-2.21,2.42-4.32,5.21-7.07,6.8c-7.28,4.18-14.72,0.04-15.48-8.27c-0.16-1.75-0.02-3.53-0.02-6.61
    	c-2.59,1.77-4.26,3.08-6.07,4.12c-6.81,3.91-13.33,8.59-20.58,11.39c-8.97,3.46-17.1-1.5-18.74-10.03
    	c-0.14-0.75-0.32-1.69-0.28-2.25c0.34-4.23,2.8-11.19,0.64-16.96c-0.16-0.41-0.8-3.32,1.63-3.31c1.86,0.01,2.06,3.66,3.01,4.69
    	c4.25-5.05,8.12-10.1,12.51-14.65c2.6-2.7,5.78-5.16,9.17-6.66c2.18-0.97,5.8-0.91,7.73,0.33c2.84,1.81,2.45,5.38,0.98,8.34
    	c-3.52,7.09-8.86,12.49-16.06,15.77c-5.81,2.64-10.14,11.04-8.58,12.93c2.85,3.45,6.08,1.14,8.72-0.22
    	c9.14-4.69,17.63-10.39,24.3-18.27c8.54-10.1,16.71-20.53,24.97-30.87c2.54-3.18,4.84-7.49,9.65-5.63c4.78,1.85,4.08,6.63,3.4,10.66
    	c-1.47,8.79-3.23,17.52-4.85,26.28C307.9,47.5,307.75,48.99,307.35,51.81z M295.9,47.91c1.01-4.59,4.06-12.23,2.87-13.03
    	c-1.26-0.84-6.61,7.78-11.07,13.03H295.9z"/>
  </clipPath>

  <!-- Paths -->
   <path clip-path="url(#w)" class="st0" d="M55.09,30.88c0,0-37.95,73.42-37.95,80.95c0,7.53,0,9.77,3.35,8.65c3.35-1.12,21.49-23.44,22.05-24.56
   	c0.56-1.12,17.58-27.07,17.58-27.07s2.79-8.39,4.74-7.4c1.95,0.99-5.58,33.92-3.35,40.06c2.23,6.14,5.02,9.49,10.33,5.58
   	S92.76,85.37,93.6,81.16c0.84-4.21,9.77-21.24,10.05-25.14c0.28-3.91,4.74-20.09,4.74-20.09"/>

   <path clip-path="url(#o)" class="st0" d="M149.97,35.93c-6.41-0.28-15.07,12.84-18.42,17.86s-14.23,21.26-13.67,27.37c0.56,6.11,7.53,5.33,11.72,0
   	c4.19-5.33,17.87-26.54,18.84-31.56C149.41,44.58,154.87,36.14,149.97,35.93z"/>

   <path clip-path="url(#r)" class="st0" d="M204.17,38.31c-9.71-2.08-14.29-2.11-27.8,6.26s-20.26,31.77-25.42,41.42c6.7-11.85,13.44-46.07,13.44-46.07"/>

   <path clip-path="url(#ri)" class="st0" d="M178.58,83.83c0,0,15.02-29.58,20.6-33.86c5.58-4.28,14.06-9.59,22.51-10.05c8.45-0.45,9.25-1.86,9.25-1.86
   	L214.62,62.8L201.6,82.72"/>

   <line clip-path="url(#i-dot)" class="st0" x1="244.6" y1="11.09" x2="236.76" y2="30.88"/>

   <path clip-path="url(#es)" class="st0" d="M231.93,42.82c0,0-1.3,8.82,5.95,8.64c7.26-0.19,20.47-8.85,21.4-10.1s9.3-8.23,5.95-12.18
   	c-3.35-3.95-10.98,2.42-12.84,4.72c-1.86,2.3-17.45,17.63-16.35,27.55s7.79,16.68,22.12,4.83c14.33-11.85,33.21-25.82,40.89-38.37
   	c7.67-12.55,4.69-14,9.86-12.46c1.44,3.44-6.18,40.17-9.86,45.99c-3.68,5.82-10.19,11.59-14.1,9.92c-3.91-1.67-8.37-12.84-2.6-16.93
   	s30.14,4.64,42.6,3.81c12.47-0.83,57.12-6.41,57.12-6.41l9.67-2.42"/>

</svg>